<svg id="Layer_1" data-name="Layer 1" xmlns="http://www.w3.org/2000/svg" viewBox="0 0 50 50"><defs><style>.cls-1{fill:#fff;}</style></defs><title>dance</title><g id="ZnExmF"><path class="cls-1" d="M25.63,22.76c-.53,1.37-1,2.68-1.54,4a.42.42,0,0,0,.05.3,6.22,6.22,0,0,1,.7,3.86.87.87,0,0,0,.12.47,34.33,34.33,0,0,0,4.74,6.3L32.53,41a.85.85,0,0,1-.11,1.36c-.68.59-1,.59-1.62,0l-7.38-6.84-.12-.09c-.05.12-.1.22-.14.33L20.57,43c-.25.71-.62.89-1.32.62s-.91-.5-.72-1.35q1-4.54,2.07-9.09a.51.51,0,0,0-.13-.52,9.27,9.27,0,0,1-1.88-9.77c.28-.78.59-1.55.88-2.32a.8.8,0,0,0,0-.45c-1-3.85-2-7.7-3.06-11.55a4.12,4.12,0,0,1-.1-1.12A1,1,0,0,1,17,6.46a1,1,0,0,1,1.19.2,3.09,3.09,0,0,1,.65,1.07c.85,2.63,1.67,5.27,2.5,7.91.22.69.44,1.37.64,2.06a.58.58,0,0,0,.42.44c.39.13.77.32,1.16.44a23.24,23.24,0,0,1,5.61,3l5.93,3.76a3.24,3.24,0,0,1,.6.48c.3.31.58.66.36,1.13a1.23,1.23,0,0,1-1.34.75,3.63,3.63,0,0,1-1-.4C31.09,25.89,28.56,24.43,26,23Z"/><path class="cls-1" d="M25.89,12.22a3.14,3.14,0,1,1-3.12,3.15A3.14,3.14,0,0,1,25.89,12.22Z"/></g></svg>