<svg id="Layer_1" data-name="Layer 1" xmlns="http://www.w3.org/2000/svg" viewBox="0 0 50 50"><defs><style>.cls-1{fill:#fff;}</style></defs><title>icon</title><path class="cls-1" d="M20.73,27.23a4.84,4.84,0,0,1,6.56-6.56l2.21-2.21a7.89,7.89,0,0,0-11,11Z"/><path class="cls-1" d="M29.31,22.73a4.84,4.84,0,0,1-6.52,6.52l-2.23,2.23a7.9,7.9,0,0,0,11-11Z"/><path class="cls-1" d="M17.65,30.32A9.07,9.07,0,0,1,30.32,17.65l4.09-4.09A14.81,14.81,0,0,0,13.56,34.4Z"/><path class="cls-1" d="M36.44,15.6l-4.09,4.09A9.07,9.07,0,0,1,19.68,32.35L15.6,36.44A14.81,14.81,0,0,0,36.44,15.6Z"/></svg>